<svg preserveAspectRatio="none" width="100%" height="100%" overflow="visible" style="display: block;" viewBox="0 0 493.333 300.932" fill="none" xmlns="http://www.w3.org/2000/svg">
<g id="Group 2117132527">
<path id="Vector 7429" d="M8.25263 253.345C3.64338 238.973 24.1011 200.871 40.1054 185.083L73.0988 245.381C73.0988 245.381 12.8619 267.717 8.25263 253.345Z" fill="black" fill-opacity="0.06"/>
<path id="Vector 7428" d="M37.8267 185.083C37.8267 185.083 -8.8185 247.657 11.6662 256.758C25.4592 262.887 51.4833 229.453 51.4833 229.453" stroke="black" stroke-width="12.9321" stroke-linecap="round" stroke-linejoin="round"/>
<g id="Vector 7401">
<path d="M98.141 46.2609C-11.3066 118.597 53.5431 234.007 53.5431 234.007C53.5431 234.007 20.5443 234.007 25.0961 262.449C29.6478 290.892 83.8255 289.754 124.783 289.754C165.575 289.754 186.403 281.176 193.66 278.187L193.748 278.151C194.275 291.945 262.557 296.104 347.674 293.916C448.6 291.32 450.598 240.716 450.598 240.716C450.598 240.716 464.202 266.765 477.903 257.898C500.45 243.308 474.223 179.644 467.046 158.956C476.861 133.344 473.818 52.7262 382 20.3958C315.655 -2.96528 166.048 1.38007 98.141 46.2609Z" fill="black" fill-opacity="0.06"/>
<path d="M193.748 278.151C194.275 291.945 262.557 296.104 347.674 293.916C448.6 291.32 450.598 240.716 450.598 240.716C450.598 240.716 464.202 266.765 477.903 257.898C500.45 243.308 474.223 179.644 467.046 158.956C476.861 133.344 473.818 52.7262 382 20.3958C315.655 -2.96528 166.048 1.38007 98.141 46.2609C-11.3066 118.597 53.5431 234.007 53.5431 234.007C53.5431 234.007 20.5443 234.007 25.0961 262.449C29.6478 290.892 83.8256 289.754 124.783 289.754C165.74 289.754 186.571 281.106 193.748 278.151ZM193.748 278.151C192.769 252.538 197.664 240.716 246.599 240.716" stroke="black" stroke-width="12.9321" stroke-linecap="round" stroke-linejoin="round"/>
</g>
<g id="Group 2117132525">
<path id="Vector 7399" d="M208.008 159.82C208.008 159.82 218.37 159.976 229.465 159.104C240.561 158.233 243.791 151.606 243.791 151.606" stroke="black" stroke-width="11.6957" stroke-linecap="round" stroke-linejoin="round"/>
<circle id="Ellipse 111799" cx="141.253" cy="131.022" r="29.9355" fill="white" stroke="black" stroke-width="11.6957"/>
<ellipse id="Ellipse 111800" cx="128.927" cy="126.949" rx="19.92" ry="24.6914" fill="black"/>
<circle id="Ellipse 111801" cx="293.329" cy="113.132" r="25.4626" fill="white" stroke="black" stroke-width="11.6957"/>
<ellipse id="Ellipse 111802" cx="284.394" cy="111.157" rx="14.8755" ry="20.3919" transform="rotate(15.0268 284.394 111.157)" fill="black"/>
</g>
</g>
</svg>
