<svg preserveAspectRatio="none" width="100%" height="100%" overflow="visible" style="display: block;" viewBox="0 0 21.6806 22.1709" fill="none" xmlns="http://www.w3.org/2000/svg">
<path id="Vector" d="M1.86829 0.0842784C0.719858 -0.313997 -0.337437 0.767019 0.101573 1.90549C1.15569 4.63915 2.43774 7.3502 3.04235 8.59355C3.29205 9.107 3.73185 9.49865 4.26448 9.6959L8.01628 11.0854L4.26448 12.475C3.73185 12.6723 3.29205 13.0639 3.04235 13.5774C2.43774 14.8207 1.15569 17.5318 0.101573 20.2655C-0.337437 21.4039 0.719858 22.485 1.86829 22.0867C5.72733 20.7484 13.8686 17.5871 20.8771 12.6278C21.9484 11.8697 21.9484 10.3012 20.8771 9.54315C13.8686 4.58385 5.72728 1.42258 1.86829 0.0842784Z" fill="var(--fill-0, black)"/>
</svg>
