<svg preserveAspectRatio="none" width="100%" height="100%" overflow="visible" style="display: block;" viewBox="0 0 30.4163 18.3813" fill="none" xmlns="http://www.w3.org/2000/svg">
<g id="Group 2117132527" opacity="0.05">
<path id="Vector 7429" d="M0.504007 15.4747C0.222468 14.5969 1.47205 12.2695 2.44962 11.3052L4.4649 14.9883C4.4649 14.9883 0.785546 16.3526 0.504007 15.4747Z" fill="var(--fill-0, black)"/>
<path id="Vector 7428" d="M2.31051 11.3052C2.31051 11.3052 -0.538646 15.1273 0.712589 15.6832C1.55508 16.0575 3.14467 14.0154 3.14467 14.0154" stroke="var(--stroke-0, black)" stroke-width="0.789909" stroke-linecap="round" stroke-linejoin="round"/>
<g id="Vector 7401">
<path d="M6.27741 2.82568C-0.407809 7.24404 3.5533 14.2934 3.5533 14.2934C3.5533 14.2934 1.53769 14.2934 1.81572 16.0308C2.09375 17.7681 5.403 17.6986 7.90473 17.6986C10.3964 17.6986 11.6686 17.1746 12.1119 16.9921L12.1172 16.9899C12.1494 17.8324 16.3202 18.0865 21.5193 17.9528C27.6839 17.7942 27.806 14.7033 27.806 14.7033C27.806 14.7033 28.6369 16.2944 29.4738 15.7528C30.851 14.8616 29.249 10.9729 28.8106 9.70928C29.4102 8.14483 29.2243 3.22059 23.6159 1.2458C19.5635 -0.181124 10.4253 0.0842967 6.27741 2.82568Z" fill="var(--fill-0, black)"/>
<path d="M12.1172 16.9899C12.1494 17.8324 16.3202 18.0865 21.5193 17.9528C27.6839 17.7942 27.806 14.7033 27.806 14.7033C27.806 14.7033 28.6369 16.2944 29.4738 15.7528C30.851 14.8616 29.249 10.9729 28.8106 9.70928C29.4102 8.14483 29.2243 3.22059 23.6159 1.2458C19.5635 -0.181124 10.4253 0.0842967 6.27741 2.82568C-0.407809 7.24404 3.5533 14.2934 3.5533 14.2934C3.5533 14.2934 1.53769 14.2934 1.81572 16.0308C2.09375 17.7681 5.403 17.6986 7.90473 17.6986C10.4065 17.6986 11.6789 17.1704 12.1172 16.9899ZM12.1172 16.9899C12.0574 15.4254 12.3564 14.7033 15.3454 14.7033" stroke="var(--stroke-0, black)" stroke-width="0.789909" stroke-linecap="round" stroke-linejoin="round"/>
</g>
</g>
</svg>
