<svg preserveAspectRatio="none" width="100%" height="100%" overflow="visible" style="display: block;" viewBox="0 0 189.245 115.439" fill="none" xmlns="http://www.w3.org/2000/svg">
<g id="Group 2117132527" opacity="0.1">
<path id="Vector 7429" d="M3.16584 97.1843C1.39772 91.6711 9.24536 77.0548 15.3847 70.9987L28.0411 94.1293C28.0411 94.1293 4.93397 102.698 3.16584 97.1843Z" fill="var(--fill-0, black)" fill-opacity="0.06"/>
<path id="Vector 7428" d="M14.5105 70.9987C14.5105 70.9987 -3.38281 95.0022 4.4752 98.4936C9.76623 100.844 19.7492 88.0194 19.7492 88.0194" stroke="var(--stroke-0, black)" stroke-width="4.96079" stroke-linecap="round" stroke-linejoin="round"/>
<g id="Vector 7401">
<path d="M37.6473 17.7458C-4.33721 45.4941 20.5394 89.7658 20.5394 89.7658C20.5394 89.7658 7.88092 89.7658 9.62699 100.676C11.3731 111.587 32.1558 111.151 47.8672 111.151C63.5152 111.151 71.5049 107.86 74.2889 106.714L74.3225 106.7C74.5247 111.991 100.718 113.587 133.369 112.747C172.085 111.752 172.851 92.3397 172.851 92.3397C172.851 92.3397 178.07 102.332 183.326 98.9308C191.975 93.334 181.914 68.9121 179.16 60.9763C182.926 51.1512 181.758 20.226 146.537 7.82389C121.087 -1.13749 63.6967 0.5294 37.6473 17.7458Z" fill="var(--fill-0, black)" fill-opacity="0.06"/>
<path d="M74.3225 106.7C74.5247 111.991 100.718 113.587 133.369 112.747C172.085 111.752 172.851 92.3397 172.851 92.3397C172.851 92.3397 178.07 102.332 183.326 98.9308C191.975 93.334 181.914 68.9121 179.16 60.9763C182.926 51.1512 181.758 20.226 146.537 7.82389C121.087 -1.13749 63.6967 0.5294 37.6473 17.7458C-4.33721 45.4941 20.5394 89.7658 20.5394 89.7658C20.5394 89.7658 7.88092 89.7658 9.62699 100.676C11.3731 111.587 32.1558 111.151 47.8672 111.151C63.5786 111.151 71.5696 107.833 74.3225 106.7ZM74.3225 106.7C73.9471 96.8745 75.8248 92.3397 94.5962 92.3397" stroke="var(--stroke-0, black)" stroke-width="4.96079" stroke-linecap="round" stroke-linejoin="round"/>
</g>
<g id="Group 2117132525">
<path id="Vector 7399" d="M79.7928 61.3081C79.7928 61.3081 83.7675 61.3676 88.0239 61.0334C92.2802 60.6992 93.5194 58.1569 93.5194 58.1569" stroke="var(--stroke-0, black)" stroke-width="4.4865" stroke-linecap="round" stroke-linejoin="round"/>
<circle id="Ellipse 111799" cx="54.1851" cy="50.2608" r="11.4834" fill="var(--fill-0, white)" stroke="var(--stroke-0, black)" stroke-width="4.4865"/>
<ellipse id="Ellipse 111800" cx="49.4568" cy="48.6985" rx="7.64139" ry="9.4717" fill="var(--fill-0, black)"/>
<circle id="Ellipse 111801" cx="112.522" cy="43.3981" r="9.76754" fill="var(--fill-0, white)" stroke="var(--stroke-0, black)" stroke-width="4.4865"/>
<ellipse id="Ellipse 111802" cx="109.095" cy="42.6407" rx="5.70629" ry="7.8224" transform="rotate(15.0268 109.095 42.6407)" fill="var(--fill-0, black)"/>
</g>
</g>
</svg>
