<svg preserveAspectRatio="none" width="100%" height="100%" overflow="visible" style="display: block;" viewBox="0 0 16 16" fill="none" xmlns="http://www.w3.org/2000/svg">
<g id="black_mail_send_email_message_Streamline_Plump" clip-path="url(#clip0_0_74)">
<path id="Vector" d="M2.69034 6.03449C2.14349 6.29971 2.15188 7.05572 2.70961 7.30302C4.04879 7.89682 5.46056 8.40205 6.11391 8.62788C6.38373 8.72113 6.67769 8.7041 6.93574 8.58553L8.75348 7.75035L7.9183 9.56809C7.79974 9.82616 7.7827 10.1201 7.87597 10.3899C8.10178 11.0433 8.60703 12.4551 9.20083 13.7942C9.44812 14.352 10.2041 14.3604 10.4694 13.8135C11.3606 11.976 13.1213 7.97989 13.8458 3.74867C13.9565 3.10188 13.4019 2.54733 12.7552 2.65808C8.52394 3.38257 4.52786 5.14329 2.69034 6.03449Z" fill="var(--fill-0, black)"/>
</g>
<defs>
<clipPath id="clip0_0_74">
<rect width="16" height="16" fill="white"/>
</clipPath>
</defs>
</svg>
