<svg preserveAspectRatio="none" width="100%" height="100%" overflow="visible" style="display: block;" viewBox="0 0 24 24" fill="none" xmlns="http://www.w3.org/2000/svg">
<g id="Frame 2117132680">
<path id="Vector" d="M14.2624 4.52941C13.0419 4.45918 10.9591 4.38663 8.90556 4.53679C8.22279 4.58672 7.63329 5.02807 7.39042 5.66636C6.35496 8.3877 5.86168 10.8979 5.65152 12.2277C5.51968 13.062 6.12607 13.8059 6.9601 13.8632C7.67282 13.9121 8.71959 13.9628 9.94182 13.9561C9.81159 15.014 9.67589 16.4253 9.54119 17.9435C9.42056 19.3035 11.0559 20.1211 12.0293 19.0781C14.5283 16.4005 16.8191 13.4228 18.0755 11.7258C18.7666 10.7923 18.1579 9.4864 16.9778 9.4557C16.4337 9.44153 15.7665 9.4334 14.9813 9.4402C15.2135 8.42726 15.4235 7.3272 15.6165 6.26514C15.7732 5.40259 15.1554 4.5808 14.2624 4.52941Z" fill="var(--fill-0, white)"/>
</g>
</svg>
