<svg preserveAspectRatio="none" width="100%" height="100%" overflow="visible" style="display: block;" viewBox="0 0 16.2002 17.5575" fill="none" xmlns="http://www.w3.org/2000/svg">
<path id="Union" d="M15.1201 15.3973C15.7165 15.3974 16.2002 15.881 16.2002 16.4774C16.2 17.0737 15.7164 17.5574 15.1201 17.5575H1.08008C0.483718 17.5575 0.000174105 17.0737 0 16.4774C0 15.8809 0.483611 15.3973 1.08008 15.3973H15.1201ZM9.8916 0.758633C10.9037 -0.252867 12.5445 -0.252888 13.5566 0.758633C14.5687 1.77069 14.5693 3.41236 13.5576 4.42465L5.80371 12.1805H5.80176L5.7998 12.1825L5.79883 12.1815L2.70703 12.575C2.14682 12.6461 1.6702 12.1694 1.74121 11.6092L2.13477 8.51742L2.13379 8.51645L2.13574 8.51547V8.51254L2.13672 8.51352L9.8916 0.758633Z" fill="var(--fill-0, white)"/>
</svg>
