<svg preserveAspectRatio="none" width="100%" height="100%" overflow="visible" style="display: block;" viewBox="0 0 24 24" fill="none" xmlns="http://www.w3.org/2000/svg">
<g id="&#229;&#136;&#160;&#233;&#153;&#164; (3) 1">
<path id="Vector" d="M14.9669 4.60868L14.0832 3.75959C13.9895 3.6658 13.8611 3.61644 13.7328 3.61644H10.2673C10.134 3.61644 10.0106 3.6658 9.91682 3.75959L9.03318 4.60868C8.93938 4.69754 8.81103 4.75184 8.68268 4.75184H5.5085C5.22711 4.75184 5.00003 4.97892 5.00003 5.2603V6.47469C5.00003 6.75607 5.22711 6.98315 5.5085 6.98315H18.4916C18.773 6.98315 19 6.75607 19 6.47469V5.25536C19 4.97398 18.773 4.7469 18.4916 4.7469H15.3174C15.189 4.7469 15.0607 4.69754 14.9669 4.60868ZM5.55292 18.3644C5.53812 19.4652 6.42175 20.3686 7.5226 20.3834H16.4775C17.5783 20.3686 18.462 19.4652 18.4471 18.3644V8.56536C18.4471 8.28398 18.2201 8.0569 17.9387 8.0569H6.05645C5.77507 8.0569 5.54799 8.28398 5.54799 8.56536V18.3644H5.55292ZM9.93163 16.5823H9.4281C9.14672 16.5823 8.91964 16.3552 8.91964 16.0738V11.9864C8.91964 11.705 9.14672 11.4779 9.4281 11.4779H9.93163C10.213 11.4779 10.4401 11.705 10.4401 11.9864V16.0738C10.4352 16.3552 10.2081 16.5823 9.93163 16.5823ZM14.5917 16.5823H14.0684C13.7871 16.5823 13.56 16.3552 13.56 16.0738V11.9864C13.56 11.705 13.7871 11.4779 14.0684 11.4779H14.567C14.8435 11.4779 15.0706 11.705 15.0755 11.9814L15.1002 16.0689C15.1002 16.3552 14.8731 16.5823 14.5917 16.5823Z" fill="var(--fill-0, black)" fill-opacity="0.3"/>
</g>
</svg>
