<svg preserveAspectRatio="none" width="100%" height="100%" overflow="visible" style="display: block;" viewBox="0 0 24 24" fill="none" xmlns="http://www.w3.org/2000/svg">
<g id="view-eye">
<path id="Vector" fill-rule="evenodd" clip-rule="evenodd" d="M12 5C6.5 5 2.73 9.11 1.46 10.73C0.85 11.51 0.85 12.49 1.46 13.27C2.73 14.89 6.5 19 12 19C17.5 19 21.27 14.89 22.54 13.27C23.15 12.49 23.15 11.51 22.54 10.73C21.27 9.11 17.5 5 12 5ZM12 7C16.42 7 19.62 10.18 20.96 11.89C20.99 11.93 21 11.97 21 12C21 12.03 20.99 12.07 20.96 12.11C19.62 13.82 16.42 17 12 17C7.58 17 4.38 13.82 3.04 12.11C3.01 12.07 3 12.03 3 12C3 11.97 3.01 11.93 3.04 11.89C4.38 10.18 7.58 7 12 7ZM12 8.5C10.07 8.5 8.5 10.07 8.5 12C8.5 13.93 10.07 15.5 12 15.5C13.93 15.5 15.5 13.93 15.5 12C15.5 10.07 13.93 8.5 12 8.5ZM12 10.5C12.83 10.5 13.5 11.17 13.5 12C13.5 12.83 12.83 13.5 12 13.5C11.17 13.5 10.5 12.83 10.5 12C10.5 11.17 11.17 10.5 12 10.5Z" fill="#000000" fill-opacity="0.6"/>
</g>
</svg>
