<svg preserveAspectRatio="none" width="100%" height="100%" overflow="visible" style="display: block;" viewBox="0 0 24 24" fill="none" xmlns="http://www.w3.org/2000/svg">
<g id="Frame 2117132681">
<path id="Vector" d="M14.4875 3.59082C13.1455 3.51176 10.8555 3.4301 8.59764 3.59913C7.84694 3.65533 7.19878 4.15214 6.93175 4.87063C5.79326 7.93391 5.2509 10.7595 5.01984 12.2565C4.87488 13.1956 5.5416 14.0329 6.45862 14.0974C7.24225 14.1525 8.39317 14.2095 9.73701 14.202C9.59382 15.3929 9.44462 16.9815 9.29652 18.6904C9.16388 20.2213 10.962 21.1416 12.0322 19.9676C14.7798 16.9535 17.2986 13.6017 18.6799 11.6915C19.4398 10.6406 18.7706 9.17066 17.473 9.13611C16.8748 9.12016 16.1412 9.111 15.2779 9.11866C15.5332 7.97845 15.7641 6.74016 15.9763 5.54465C16.1486 4.57372 15.4693 3.64866 14.4875 3.59082Z" fill="var(--fill-0, white)"/>
</g>
</svg>
