<svg preserveAspectRatio="none" width="100%" height="100%" overflow="visible" style="display: block;" viewBox="0 0 20 20" fill="none" xmlns="http://www.w3.org/2000/svg">
<g id="&#232;&#167;&#146;&#232;&#137;&#178;&#231;&#174;&#161;&#231;&#144;&#134; 1" clip-path="url(#clip0_0_9)">
<path id="Vector" d="M16.6627 17.6416V16.2497C16.6627 15.6391 16.2537 15.0823 15.4358 14.5793C14.5904 14.098 13.6729 13.7563 12.7186 13.5673C11.8286 13.3484 10.9164 13.2321 9.99987 13.2207C9.08307 13.2341 8.17085 13.3528 7.28112 13.5743C6.32609 13.7623 5.4079 14.1041 4.56238 14.5863C3.74599 15.0893 3.3378 15.6463 3.3378 16.2571V17.649H16.6633L16.6627 17.6416ZM10.0001 5.87866C9.42482 5.87567 8.85752 6.01297 8.3473 6.27865C7.85128 6.52708 7.42843 6.9003 7.12033 7.36163C6.82405 7.79141 6.66539 8.30109 6.66539 8.8231C6.66539 9.34511 6.82405 9.85479 7.12033 10.2846C7.42849 10.7455 7.85135 11.1183 8.3473 11.3662C8.85919 11.6306 9.42699 11.7687 10.0032 11.7687C10.5793 11.7687 11.1471 11.6306 11.659 11.3662C12.1539 11.1173 12.576 10.7447 12.8844 10.2846C13.1807 9.85479 13.3393 9.34511 13.3393 8.8231C13.3393 8.30109 13.1807 7.79141 12.8844 7.36163C12.5765 6.90071 12.1543 6.52756 11.659 6.27865C11.1464 6.01251 10.5767 5.87523 9.99907 5.87866H10.0001ZM10.0001 1.98134C9.39648 1.98134 8.90729 2.41313 8.90729 2.94592C8.90671 3.07922 8.93453 3.21111 8.98891 3.33281C9.0433 3.45451 9.12299 3.56322 9.22268 3.6517C9.43195 3.84827 9.70826 3.9577 9.99537 3.9577C10.2825 3.9577 10.5588 3.84827 10.7681 3.6517C10.8672 3.56275 10.9465 3.45394 11.0008 3.33235C11.0551 3.21076 11.0833 3.0791 11.0834 2.94592C11.0841 2.81636 11.0562 2.68826 11.0016 2.57073C10.9471 2.4532 10.8674 2.34913 10.7681 2.26593C10.555 2.07861 10.2788 1.97912 9.99527 1.98754L10.0001 1.98134ZM17.7557 1.98134C18.337 1.9705 18.9007 2.18097 19.3327 2.57013C19.5405 2.73787 19.7082 2.94988 19.8236 3.1907C19.9389 3.43152 19.9991 3.69506 19.9997 3.9621V17.9718C19.9992 18.2387 19.9393 18.5022 19.8242 18.743C19.7091 18.9837 19.5417 19.1958 19.3343 19.3638C18.9074 19.7668 18.3443 19.994 17.7573 20H2.24442C1.65766 19.9941 1.09463 19.7675 0.667455 19.3652C0.459754 19.1974 0.292104 18.9854 0.17672 18.7446C0.0613351 18.5037 0.00112252 18.2402 0.00046875 17.9732V3.9495C0.000687066 3.68254 0.060543 3.419 0.175663 3.17814C0.290783 2.93727 0.45826 2.72517 0.665855 2.55733C1.09835 2.16905 1.66169 1.95872 2.24282 1.96854H6.88073C7.11852 1.38477 7.53328 0.890199 8.06671 0.554366C8.64616 0.191984 9.31583 -0.000175781 9.99927 -0.000175781C10.6827 -0.000175781 11.3524 0.191984 11.9318 0.554366C12.4654 0.892622 12.88 1.38905 13.1178 1.97434L17.7557 1.98134Z" fill="var(--fill-0, black)" fill-opacity="0.3"/>
</g>
<defs>
<clipPath id="clip0_0_9">
<rect width="20" height="20" fill="white"/>
</clipPath>
</defs>
</svg>
