<svg preserveAspectRatio="none" width="100%" height="100%" overflow="visible" style="display: block;" viewBox="0 0 56 55" fill="none" xmlns="http://www.w3.org/2000/svg">
<g id="&#230;&#155;&#180;&#230;&#141;&#162; (1) 1" filter="url(#filter0_d_0_56)">
<path id="Vector" d="M30.35 32.6153L30.4 34.792C30.4 34.792 30.4 34.9404 30.65 34.9899C30.9 35.0394 31.1 34.891 31.1 34.891C31.2 34.8415 35.6 32.0216 35.6 32.0216C35.6 32.0216 36 31.7248 36 31.329C36 30.9332 35.7 30.7353 35.7 30.7353L31.1 28.1133C31.1 28.1133 30.8 28.0144 30.55 28.0639C30.3 28.1133 30.3 28.3112 30.3 28.3112L30.35 30.2901L25.9 30.3396C25.9 30.3396 22.4 29.9438 22.35 28.6575C22.35 28.6575 22.5 32.7142 26.05 32.6153M25.65 22.3746L25.6 20.1979C25.6 20.1979 25.55 20.0495 25.25 20C25.05 20 24.95 20.0989 24.9 20.0989L20.4 22.9683C20.4 22.9683 20 23.1662 20 23.6114C20 24.0072 20.3 24.2051 20.3 24.2051L24.95 26.8766C24.95 26.8766 25.15 26.9755 25.4 26.926C25.7 26.8271 25.75 26.6787 25.75 26.6787L25.7 24.6998L30.15 24.6503C30.15 24.6503 33.65 25.0461 33.7 26.3324C33.7 26.3324 33.55 22.2757 30 22.3252" fill="var(--fill-0, white)"/>
</g>
<defs>
<filter id="filter0_d_0_56" x="-10" y="-10" width="76" height="76" filterUnits="userSpaceOnUse" color-interpolation-filters="sRGB">
<feFlood flood-opacity="0" result="BackgroundImageFix"/>
<feColorMatrix in="SourceAlpha" type="matrix" values="0 0 0 0 0 0 0 0 0 0 0 0 0 0 0 0 0 0 127 0" result="hardAlpha"/>
<feOffset/>
<feGaussianBlur stdDeviation="10"/>
<feComposite in2="hardAlpha" operator="out"/>
<feColorMatrix type="matrix" values="0 0 0 0 0 0 0 0 0 0 0 0 0 0 0 0 0 0 0.3 0"/>
<feBlend mode="normal" in2="BackgroundImageFix" result="effect1_dropShadow_0_56"/>
<feBlend mode="normal" in="SourceGraphic" in2="effect1_dropShadow_0_56" result="shape"/>
</filter>
</defs>
</svg>
