<svg preserveAspectRatio="none" width="100%" height="100%" overflow="visible" style="display: block;" viewBox="0 0 16.5488 16.5488" fill="none" xmlns="http://www.w3.org/2000/svg">
<path id="Star 2" d="M6.78597 2.04834C7.24974 0.872449 7.48162 0.284505 7.81434 0.112108C8.10283 -0.0373692 8.44596 -0.0373692 8.73444 0.112108C9.06717 0.284505 9.29905 0.87245 9.76282 2.04834L10.083 2.86019C10.4588 3.81311 10.6467 4.28957 10.9345 4.69133C11.1895 5.04745 11.5013 5.35926 11.8575 5.61431C12.2592 5.90204 12.7357 6.08996 13.6886 6.46578L14.5004 6.78597C15.6763 7.24974 16.2643 7.48162 16.4367 7.81434C16.5862 8.10283 16.5862 8.44596 16.4367 8.73444C16.2643 9.06717 15.6763 9.29905 14.5004 9.76282L13.6886 10.083C12.7357 10.4588 12.2592 10.6467 11.8575 10.9345C11.5013 11.1895 11.1895 11.5013 10.9345 11.8575C10.6467 12.2592 10.4588 12.7357 10.083 13.6886L9.76282 14.5004C9.29905 15.6763 9.06717 16.2643 8.73444 16.4367C8.44596 16.5862 8.10283 16.5862 7.81434 16.4367C7.48162 16.2643 7.24973 15.6763 6.78597 14.5004L6.46578 13.6886C6.08996 12.7357 5.90204 12.2592 5.61431 11.8575C5.35926 11.5013 5.04745 11.1895 4.69133 10.9345C4.28957 10.6467 3.81311 10.4588 2.86019 10.083L2.04834 9.76282C0.872449 9.29905 0.284505 9.06717 0.112108 8.73444C-0.0373692 8.44596 -0.0373692 8.10283 0.112108 7.81434C0.284505 7.48162 0.87245 7.24973 2.04834 6.78597L2.86019 6.46578C3.81311 6.08996 4.28957 5.90204 4.69133 5.61431C5.04745 5.35926 5.35926 5.04745 5.61431 4.69133C5.90204 4.28957 6.08996 3.81311 6.46578 2.86019L6.78597 2.04834Z" fill="var(--fill-0, white)"/>
</svg>
