<svg preserveAspectRatio="none" width="100%" height="100%" overflow="visible" style="display: block;" viewBox="0 0 22.5 22.5" fill="none" xmlns="http://www.w3.org/2000/svg">
<path id="Vector" fill-rule="evenodd" clip-rule="evenodd" d="M9 0C6.4169 0 4.5169 0.086095 3.22034 0.1787C1.56965 0.296595 0.296595 1.56965 0.1787 3.22035C0.086095 4.5169 0 6.4169 0 9C0 11.5831 0.086095 13.4831 0.1787 14.7796C0.2935 16.387 1.50355 17.6363 3.09103 17.8097C3.0379 16.6537 3 15.2248 3 13.5C3 10.8837 3.0872 8.94795 3.18251 7.6135C3.35356 5.2186 5.2186 3.35356 7.6135 3.18251C8.94795 3.0872 10.8837 3 13.5 3C15.2248 3 16.6537 3.0379 17.8097 3.09103C17.6363 1.50355 16.387 0.2935 14.7796 0.1787C13.4831 0.086095 11.5831 0 9 0ZM13.5 4.5C10.9169 4.5 9.0169 4.5861 7.72035 4.6787C6.06965 4.7966 4.7966 6.06965 4.6787 7.72035C4.5861 9.0169 4.5 10.9169 4.5 13.5C4.5 16.0831 4.5861 17.9831 4.6787 19.2796C4.7966 20.9303 6.06965 22.2034 7.72035 22.3213C9.0169 22.4139 10.9169 22.5 13.5 22.5C16.0831 22.5 17.9831 22.4139 19.2796 22.3213C20.9303 22.2034 22.2034 20.9303 22.3213 19.2796C22.4139 17.9831 22.5 16.0831 22.5 13.5C22.5 10.9169 22.4139 9.0169 22.3213 7.72035C22.2034 6.06965 20.9303 4.7966 19.2796 4.6787C17.9831 4.5861 16.0831 4.5 13.5 4.5ZM15.5001 9.5C15.5001 8.39545 16.3955 7.5 17.5001 7.5C18.6046 7.5 19.5001 8.39545 19.5001 9.5C19.5001 10.6046 18.6046 11.5 17.5001 11.5C16.3955 11.5 15.5001 10.6046 15.5001 9.5ZM20.9585 16.4449C20.2712 15.8213 19.7355 15.3629 19.3272 15.0289C18.5805 14.4182 17.5784 14.3215 16.759 14.868C16.2272 15.2227 15.5128 15.7503 14.5947 16.5287C13.1989 15.2 12.2248 14.3517 11.5743 13.8196C10.8276 13.2089 9.82535 13.1122 9.006 13.6587C8.32685 14.1116 7.3497 14.8467 6.03025 16.0267C6.0629 17.3326 6.11795 18.3745 6.17495 19.1728C6.2397 20.0793 6.92075 20.7603 7.8273 20.8251C9.08595 20.915 10.9503 21 13.5001 21C16.05 21 17.9142 20.915 19.1728 20.8251C20.0794 20.7603 20.7604 20.0793 20.8252 19.1728C20.876 18.4616 20.9252 17.5571 20.9585 16.4449Z" fill="var(--fill-0, black)" fill-opacity="0.5"/>
</svg>
