<svg preserveAspectRatio="none" width="100%" height="100%" overflow="visible" style="display: block;" viewBox="0 0 24 24" fill="none" xmlns="http://www.w3.org/2000/svg">
<g id="&#233;&#159;&#179;&#228;&#185;&#144; 1" opacity="0.5">
<path id="Vector" opacity="0.99" d="M2.14975 20.3915C2.28549 20.7431 2.51038 21.0564 2.81159 21.3133C3.11281 21.5703 3.48444 21.766 3.90527 21.8892C4.3261 22.0124 4.78789 22.0607 5.26428 22.0314C5.74066 22.0021 6.22231 21.8958 6.68172 21.7184C7.14114 21.541 7.56931 21.2962 7.94181 20.9978C8.31431 20.6994 8.62383 20.3533 8.8527 19.9792C9.08158 19.6052 9.22532 19.2106 9.27573 18.8179C9.32613 18.4251 9.28221 18.0421 9.14648 17.6905C8.87235 16.9804 8.24087 16.4416 7.39096 16.1928C6.54105 15.944 5.54233 16.0054 4.6145 16.3636C3.68668 16.7218 2.90575 17.3474 2.44352 18.1027C1.98129 18.8581 1.87562 19.6814 2.14975 20.3915Z" fill="var(--fill-0, black)"/>
<path id="Vector_2" opacity="0.99" d="M12.9501 18.1419C13.0858 18.4935 13.3107 18.8067 13.6119 19.0637C13.9131 19.3207 14.2847 19.5164 14.7056 19.6396C15.1264 19.7628 15.5882 19.8112 16.0646 19.7819C16.541 19.7526 17.0227 19.6462 17.4821 19.4688C17.9415 19.2915 18.3697 19.0466 18.7422 18.7482C19.1147 18.4498 19.4242 18.1037 19.6531 17.7296C19.882 17.3556 20.0257 16.9609 20.0761 16.5682C20.1265 16.1755 20.0826 15.7924 19.9468 15.4408C19.8111 15.0892 19.5862 14.7759 19.285 14.5189C18.9838 14.262 18.6121 14.0663 18.1913 13.943C17.7705 13.8198 17.3087 13.7715 16.8323 13.8008C16.3559 13.8301 15.8742 13.9364 15.4148 14.1138C14.9554 14.2912 14.5272 14.536 14.1547 14.8345C13.7822 15.1329 13.4726 15.479 13.2438 15.853C13.0149 16.2271 12.8712 16.6217 12.8208 17.0144C12.7704 17.4072 12.8143 17.7903 12.9501 18.1419Z" fill="var(--fill-0, black)"/>
<path id="Vector_3" opacity="0.99" d="M17.4663 2.30992L9.13629 4.95992C8.71968 5.08563 8.35464 5.34221 8.09527 5.69164C7.83591 6.04106 7.696 6.46475 7.69629 6.89992V18.5199H9.29629V9.09992C9.29629 8.90992 9.41629 8.73992 9.60629 8.68992L17.9463 6.02992C17.9863 6.01992 18.0263 6.00992 18.0663 6.00992C18.2763 6.00992 18.4963 6.17992 18.4963 6.43992V16.2399H20.0963V4.23992C20.0963 2.87992 18.7763 1.90992 17.4663 2.30992Z" fill="var(--fill-0, black)"/>
</g>
</svg>
