<svg preserveAspectRatio="none" width="100%" height="100%" overflow="visible" style="display: block;" viewBox="0 0 24 24" fill="none" xmlns="http://www.w3.org/2000/svg">
<g id=" ">
<path id="Union" d="M19.625 5.88885C20.8628 6.16893 21.7226 7.02408 21.8047 8.04608C21.8996 9.23086 22 11.1194 22 13.8176C22 16.516 21.8996 18.4052 21.8047 19.59C21.7101 20.7662 20.5854 21.7227 19.04 21.8342C17.8566 21.9195 16.1332 21.9982 13.7998 21.9982C11.4664 21.9982 9.74299 21.9195 8.55957 21.8342C7.01435 21.7226 5.88952 20.7661 5.79492 19.59C5.79406 19.5792 5.79383 19.5677 5.79297 19.5568C5.9893 19.6032 6.19504 19.637 6.40918 19.6525C7.58996 19.7378 9.30958 19.8166 11.6377 19.8166C13.9655 19.8166 15.6846 19.7378 16.8652 19.6525C18.4073 19.5411 19.5298 18.5847 19.624 17.4084C19.7187 16.2236 19.8184 14.3352 19.8184 11.6369C19.8184 8.95643 19.7192 7.07512 19.625 5.88885ZM10.1816 2.00213C12.5101 2.00213 14.2303 2.08087 15.4111 2.16619C16.9532 2.27772 18.0757 3.23405 18.1699 4.41033C18.2646 5.59508 18.3642 7.48343 18.3643 10.1818C18.3642 12.8804 18.2646 14.7695 18.1699 15.9543C18.0756 17.1305 16.9531 18.0869 15.4111 18.1984C14.2302 18.2837 12.5101 18.3625 10.1816 18.3625C7.85347 18.3625 6.13389 18.2837 4.95312 18.1984C3.41114 18.0869 2.28865 17.1305 2.19434 15.9543C2.0996 14.7695 2 12.8804 2 10.1818C2.00001 7.48343 2.0996 5.59512 2.19434 4.41033C2.28852 3.23406 3.41105 2.27771 4.95312 2.16619C6.13389 2.08087 7.85347 2.00214 10.1816 2.00213Z" fill="var(--fill-0, black)" fill-opacity="0.5"/>
</g>
</svg>
