<svg preserveAspectRatio="none" width="100%" height="100%" overflow="visible" style="display: block;" viewBox="0 0 189.961 31.3024" fill="none" xmlns="http://www.w3.org/2000/svg">
<g id="logo">
<path id="Union" d="M10.375 1.49897C13.6411 1.08201 23.055 0.857844 26.8975 1.49799C30.7395 2.13822 34.3495 3.96347 35.542 7.83784C37.0789 12.8329 35.9266 18.9815 34.3897 21.2871C32.8527 23.5924 30.3548 25.7054 24.9756 25.3212C19.5971 24.937 17.6284 23.4008 17.4834 24.5527C17.0348 28.1308 17.3575 30.0794 13.0645 30.5087C9.2222 30.8929 4.43952 30.9307 2.1133 26.8583C0.577222 24.1685 0.000652495 18.4046 2.01077e-05 15.9072C-0.000611995 13.4094 0.00085013 8.22235 2.1133 5.34077C4.22584 2.45938 7.10923 1.91593 10.375 1.49897ZM87.2197 1.49897C90.4858 1.082 99.8998 0.857806 103.742 1.49799C107.585 2.1382 111.194 3.96397 112.387 7.83881C113.923 12.8337 112.771 18.9814 111.234 21.2871C109.697 23.5924 107.199 25.7054 101.82 25.3212C96.4418 24.937 94.4731 23.4008 94.3281 24.5527C93.8796 28.1308 94.2021 30.0794 89.9092 30.5087C86.0669 30.8929 81.2841 30.9308 78.958 26.8583C77.4219 24.1686 76.8464 18.4047 76.8457 15.9072C76.8451 13.4094 76.8456 8.22235 78.958 5.34077C81.0706 2.45934 83.954 1.91593 87.2197 1.49897ZM164.068 1.49897C167.335 1.08201 176.749 0.857794 180.591 1.49799C184.433 2.13825 188.043 3.9641 189.235 7.83881C190.772 12.8337 189.619 18.9815 188.082 21.2871C186.545 23.5923 184.048 25.7053 178.669 25.3212C173.29 24.9371 171.322 23.4009 171.177 24.5527C170.728 28.1308 171.051 30.0794 166.758 30.5087C162.916 30.893 158.133 30.9308 155.807 26.8583C154.271 24.1686 153.694 18.4047 153.693 15.9072C153.693 13.4094 153.694 8.22235 155.807 5.34077C157.919 2.45945 160.803 1.91592 164.068 1.49897ZM56.4815 1.1142C67.8156 1.11433 72.8119 2.84409 74.541 10.1445C75.9515 16.1001 75.0223 23.1754 71.8496 26.4414C69.124 29.2471 63.3969 30.4765 56.4815 30.4765C49.5665 30.4765 45.9881 29.1683 43.9932 28.1708C41.1056 26.727 39.087 24.3188 38.4209 21.1689C37.4234 16.4519 37.8435 9.77964 39.3819 7.26264C41.4958 3.8045 45.1473 1.11413 56.4815 1.1142ZM133.334 1.1142C144.668 1.11441 149.665 2.84413 151.394 10.1445C152.804 16.0999 151.875 23.1752 148.702 26.4414C145.977 29.2471 140.249 30.4764 133.334 30.4765C126.419 30.4765 122.84 29.1683 120.845 28.1708C117.957 26.727 115.94 24.3188 115.273 21.1689C114.276 16.4518 114.696 9.77955 116.234 7.26264C118.348 3.80462 122 1.11409 133.334 1.1142ZM56.0987 13.9863C54.178 13.9863 53.6008 14.9468 53.6006 15.9072C53.6006 16.8677 54.3697 17.6366 56.0987 17.6367C57.8275 17.6366 59.1719 17.0598 59.1719 15.9072C59.1716 14.7548 58.0193 13.9864 56.0987 13.9863ZM132.95 13.9863C131.03 13.9864 130.453 14.9468 130.453 15.9072C130.453 16.8677 131.221 17.6366 132.95 17.6367C134.679 17.6366 136.024 17.0598 136.024 15.9072C136.024 14.7548 134.871 13.9864 132.95 13.9863ZM16.9072 12.0654C15.5634 12.0656 15.1776 13.0255 15.1778 13.7939C15.1781 14.5623 15.5622 15.5232 16.9072 15.5234C18.2525 15.5234 21.1338 15.5229 21.1338 13.7939C21.1331 12.0655 18.2516 12.0653 16.9072 12.0654ZM93.751 12.0654C92.4069 12.0655 92.0214 13.0255 92.0215 13.7939C92.0219 14.5624 92.4057 15.5234 93.751 15.5234C95.0963 15.5234 97.9776 15.5229 97.9776 13.7939C97.9769 12.0656 95.0954 12.0653 93.751 12.0654ZM170.601 12.0644C169.256 12.0645 168.871 13.0254 168.871 13.7939C168.872 14.5624 169.255 15.5224 170.601 15.5224C171.946 15.5224 174.827 15.5228 174.827 13.7939C174.827 12.0652 171.945 12.0643 170.601 12.0644Z" fill="var(--fill-0, black)"/>
<g id="Group 2117132527">
<path id="Vector 7429" d="M107.793 26.3524C107.314 24.8575 109.442 20.8941 111.107 19.2519L114.539 25.5241C114.539 25.5241 108.273 27.8474 107.793 26.3524Z" fill="var(--fill-0, #F0DA9C)"/>
<path id="Vector 7428" d="M110.871 19.2519C110.871 19.2519 106.019 25.7607 108.15 26.7075C109.584 27.3449 112.291 23.8673 112.291 23.8673" stroke="var(--stroke-0, black)" stroke-width="1.34517" stroke-linecap="round" stroke-linejoin="round"/>
<g id="Vector 7401">
<path d="M117.145 4.81197C105.761 12.3362 112.506 24.3409 112.506 24.3409C112.506 24.3409 109.074 24.3409 109.547 27.2995C110.021 30.258 115.656 30.1397 119.916 30.1397C124.16 30.1397 126.326 29.2474 127.081 28.9365L127.09 28.9327C127.145 30.3676 134.247 30.8002 143.101 30.5725C153.599 30.3026 153.807 25.0389 153.807 25.0389C153.807 25.0389 155.222 27.7483 156.647 26.8261C158.993 25.3085 156.264 18.6862 155.518 16.5344C156.539 13.8702 156.222 5.48448 146.672 2.12153C139.771 -0.308443 124.209 0.143552 117.145 4.81197Z" fill="var(--fill-0, #F0DA9C)"/>
<path d="M127.09 28.9327C127.145 30.3676 134.247 30.8002 143.101 30.5725C153.599 30.3026 153.807 25.0389 153.807 25.0389C153.807 25.0389 155.222 27.7483 156.647 26.8261C158.993 25.3085 156.264 18.6862 155.518 16.5344C156.539 13.8702 156.222 5.48448 146.672 2.12153C139.771 -0.308443 124.209 0.143552 117.145 4.81197C105.761 12.3362 112.506 24.3409 112.506 24.3409C112.506 24.3409 109.074 24.3409 109.547 27.2995C110.021 30.258 115.656 30.1397 119.916 30.1397C124.177 30.1397 126.344 29.2402 127.09 28.9327ZM127.09 28.9327C126.988 26.2685 127.497 25.0389 132.587 25.0389" stroke="var(--stroke-0, black)" stroke-width="1.34517" stroke-linecap="round" stroke-linejoin="round"/>
</g>
<g id="Group 2117132525">
<path id="Vector 7399" d="M128.572 16.6243C128.572 16.6243 129.649 16.6405 130.804 16.5498C131.958 16.4592 132.294 15.7698 132.294 15.7698" stroke="var(--stroke-0, black)" stroke-width="1.21656" stroke-linecap="round" stroke-linejoin="round"/>
<circle id="Ellipse 111799" cx="121.63" cy="13.6289" r="3.11383" fill="var(--fill-0, white)" stroke="var(--stroke-0, black)" stroke-width="1.21656"/>
<ellipse id="Ellipse 111800" cx="120.346" cy="13.2052" rx="2.07204" ry="2.56835" fill="var(--fill-0, black)"/>
<circle id="Ellipse 111801" cx="137.448" cy="11.7679" r="2.64857" fill="var(--fill-0, white)" stroke="var(--stroke-0, black)" stroke-width="1.21656"/>
<ellipse id="Ellipse 111802" cx="136.519" cy="11.5623" rx="1.54732" ry="2.12112" transform="rotate(15.0268 136.519 11.5623)" fill="var(--fill-0, black)"/>
</g>
</g>
</g>
</svg>
