<svg preserveAspectRatio="none" width="100%" height="100%" overflow="visible" style="display: block;" viewBox="0 0 20 20" fill="none" xmlns="http://www.w3.org/2000/svg">
<g id="&#230;&#148;&#182;&#232;&#181;&#183; 1">
<path id="Vector" d="M15.15 10.91L18.0575 12.8092C18.2461 12.9323 18.4644 13.0022 18.6895 13.0114C18.9145 13.0207 19.1379 12.9689 19.3359 12.8617C19.534 12.7545 19.6994 12.5957 19.8147 12.4022C19.93 12.2088 19.9908 11.9877 19.9908 11.7625V7.98166C19.9908 7.75687 19.9301 7.53625 19.8152 7.34304C19.7004 7.14983 19.5355 6.99117 19.338 6.88377C19.1406 6.77638 18.9178 6.72422 18.6932 6.73279C18.4685 6.74137 18.2504 6.81035 18.0617 6.93249L15.1533 8.81416C14.9786 8.92731 14.8348 9.08233 14.7352 9.26513C14.6355 9.44794 14.5831 9.65274 14.5827 9.86094C14.5823 10.0691 14.6339 10.2742 14.7328 10.4574C14.8317 10.6406 14.9748 10.7961 15.1492 10.91H15.15Z" fill="var(--fill-0, black)"/>
<rect id="Rectangle 346243779" y="1" width="20" height="4" rx="2" fill="var(--fill-0, black)"/>
<rect id="Rectangle 346243780" y="8" width="13" height="4" rx="2" fill="var(--fill-0, black)"/>
<rect id="Rectangle 346243781" y="15" width="20" height="4" rx="2" fill="var(--fill-0, black)"/>
</g>
</svg>
