<svg preserveAspectRatio="none" width="100%" height="100%" overflow="visible" style="display: block;" viewBox="0 0 18.75 18.75" fill="none" xmlns="http://www.w3.org/2000/svg">
<path id="Vector" fill-rule="evenodd" clip-rule="evenodd" d="M0 9.375C0 4.19733 4.19733 0 9.375 0C14.5527 0 18.75 4.19733 18.75 9.375C18.75 14.5527 14.5527 18.75 9.375 18.75C7.67087 18.75 6.07242 18.2951 4.695 17.5001C3.66758 17.8794 2.50385 18.2521 1.3574 18.5205C0.666463 18.6823 0.04745 18.0904 0.188038 17.3916C0.429354 16.1921 0.798004 14.9914 1.19084 13.9511C0.432362 12.5975 0 11.0364 0 9.375ZM12.0116 11.4178C12.2641 11.033 12.7808 10.9258 13.1655 11.1783C13.5503 11.4308 13.6575 11.9474 13.405 12.3322C12.4901 13.7265 10.8946 14.375 9.375 14.375C7.85542 14.375 6.25992 13.7265 5.34496 12.3322C5.09246 11.9474 5.19967 11.4308 5.58446 11.1783C5.96925 10.9258 6.48587 11.033 6.73837 11.4178C7.28175 12.2458 8.29042 12.7083 9.375 12.7083C10.4596 12.7083 11.4682 12.2458 12.0116 11.4178ZM6.45833 5.625C6.91858 5.625 7.29167 5.99808 7.29167 6.45833V7.29167C7.29167 7.75192 6.91858 8.125 6.45833 8.125C5.99808 8.125 5.625 7.75192 5.625 7.29167V6.45833C5.625 5.99808 5.99808 5.625 6.45833 5.625ZM11.4583 6.45833C11.4583 5.99808 11.8314 5.625 12.2917 5.625C12.7519 5.625 13.125 5.99808 13.125 6.45833V7.29167C13.125 7.75192 12.7519 8.125 12.2917 8.125C11.8314 8.125 11.4583 7.75192 11.4583 7.29167V6.45833Z" fill="var(--fill-0, black)" fill-opacity="0.3"/>
</svg>
