<svg preserveAspectRatio="none" width="100%" height="100%" overflow="visible" style="display: block;" viewBox="0 0 15.9163 18.8779" fill="none" xmlns="http://www.w3.org/2000/svg">
<path id="Vector" d="M10.7861 0.100855C9.26051 0.0130634 6.65697 -0.0776242 4.09009 0.110076C3.23663 0.172488 2.49976 0.72418 2.19618 1.52203C0.901842 4.92371 0.285246 8.06142 0.0225506 9.72375C-0.142249 10.7666 0.615734 11.6965 1.65828 11.768C2.54918 11.8292 3.85763 11.8925 5.38543 11.8842C5.22263 13.2066 5.05301 14.9708 4.88463 16.8685C4.73384 18.5685 6.77805 19.5905 7.9948 18.2867C11.1185 14.9397 13.982 11.2176 15.5525 9.09634C16.4164 7.92942 15.6555 6.29709 14.1803 6.25871C13.5003 6.241 12.6662 6.23083 11.6848 6.23933C11.9751 4.97317 12.2375 3.59808 12.4787 2.27051C12.6746 1.19233 11.9023 0.165084 10.7861 0.100855Z" fill="var(--fill-0, black)"/>
</svg>
