<svg preserveAspectRatio="none" width="100%" height="100%" overflow="visible" style="display: block;" viewBox="0 0 168.302 132.088" fill="none" xmlns="http://www.w3.org/2000/svg">
<g id="Group 2117132528">
<path id="Union" d="M9.19142 106.24C12.085 105.871 20.4258 105.673 23.8301 106.24C27.2342 106.807 30.433 108.424 31.4893 111.857C32.8507 116.283 31.8294 121.73 30.4678 123.772C29.1061 125.815 26.8923 127.687 22.127 127.347C17.3615 127.006 15.6173 125.645 15.4893 126.666C15.0921 129.835 15.3778 131.562 11.5752 131.942C8.17113 132.283 3.93301 132.316 1.87209 128.708C0.511167 126.325 0.000651619 121.219 1.78079e-05 119.006C-0.000542356 116.793 0.000771687 112.198 1.87209 109.644C3.74364 107.092 6.29814 106.61 9.19142 106.24ZM77.2774 106.24C80.1709 105.871 88.5106 105.672 91.9151 106.239C95.3191 106.806 98.5178 108.424 99.5742 111.856C100.936 116.282 99.9153 121.729 98.5537 123.771C97.192 125.814 94.9788 127.686 90.2129 127.346C85.4474 127.005 83.7035 125.644 83.5752 126.665C83.1778 129.835 83.4635 131.561 79.6602 131.941C76.256 132.282 72.0189 132.315 69.958 128.707C68.5972 126.324 68.0866 121.219 68.086 119.006C68.0854 116.793 68.0864 112.197 69.958 109.644C71.8297 107.091 74.3841 106.61 77.2774 106.24ZM145.362 106.24C148.256 105.871 156.596 105.672 160 106.239C163.404 106.806 166.603 108.424 167.659 111.856C169.021 116.282 167.999 121.729 166.638 123.771C165.276 125.814 163.063 127.686 158.298 127.346C153.532 127.005 151.788 125.644 151.66 126.665C151.263 129.835 151.548 131.561 147.745 131.941C144.341 132.282 140.103 132.315 138.042 128.707C136.681 126.324 136.172 121.219 136.171 119.006C136.17 116.793 136.17 112.197 138.042 109.644C139.914 107.091 142.469 106.61 145.362 106.24ZM50.043 105.899C60.0842 105.9 64.5111 107.432 66.043 113.899C67.2926 119.176 66.47 125.445 63.6592 128.339C61.2445 130.825 56.1696 131.913 50.043 131.913C43.9166 131.913 40.746 130.754 38.9785 129.87C36.4203 128.591 34.6323 126.458 34.042 123.667C33.1582 119.488 33.5307 113.577 34.8936 111.347C36.7664 108.283 40.0012 105.899 50.043 105.899ZM118.129 105.899C128.17 105.9 132.597 107.432 134.129 113.899C135.378 119.176 134.556 125.445 131.745 128.339C129.33 130.825 124.256 131.913 118.129 131.913C112.003 131.913 108.832 130.754 107.064 129.87C104.506 128.591 102.718 126.458 102.128 123.667C101.244 119.488 101.617 113.577 102.98 111.347C104.852 108.283 108.087 105.899 118.129 105.899ZM49.7031 117.304C48.001 117.304 47.4903 118.155 47.4903 119.006C47.4904 119.857 48.1714 120.538 49.7031 120.538C51.2345 120.538 52.4255 120.027 52.4258 119.006C52.4258 117.985 51.4048 117.304 49.7031 117.304ZM117.789 117.304C116.087 117.304 115.576 118.155 115.576 119.006C115.576 119.857 116.257 120.538 117.789 120.538C119.32 120.538 120.511 120.027 120.512 119.006C120.512 117.985 119.491 117.304 117.789 117.304ZM14.9785 115.602C13.7878 115.602 13.446 116.453 13.4463 117.134C13.4468 117.814 13.7873 118.666 14.9785 118.666C16.1703 118.666 18.7231 118.665 18.7237 117.134C18.7236 115.602 16.1697 115.601 14.9785 115.602ZM83.0645 115.602C81.8736 115.602 81.5321 116.452 81.5322 117.133C81.5326 117.814 81.8726 118.665 83.0645 118.665C84.2565 118.665 86.8086 118.664 86.8086 117.133C86.808 115.602 84.2556 115.601 83.0645 115.602ZM151.148 115.602C149.958 115.602 149.616 116.452 149.616 117.133C149.617 117.813 149.957 118.665 151.148 118.665C152.34 118.665 154.894 118.665 154.894 117.133C154.893 115.601 152.339 115.601 151.148 115.602Z" fill="var(--fill-0, black)"/>
<g id="Group 2117132527">
<path id="Vector 7429" d="M14.2508 73.842C12.9074 69.653 18.8701 58.5473 23.5348 53.9458L33.1513 71.5208C33.1513 71.5208 15.5943 78.031 14.2508 73.842Z" fill="var(--fill-0, #F0DA9C)"/>
<path id="Vector 7428" d="M22.8707 53.9458C22.8707 53.9458 9.27519 72.184 15.2458 74.8368C19.266 76.623 26.8512 66.8783 26.8512 66.8783" stroke="var(--stroke-0, black)" stroke-width="3.76927" stroke-linecap="round" stroke-linejoin="round"/>
<g id="Vector 7401">
<path d="M40.4524 13.4835C8.5521 34.567 27.4536 68.2052 27.4536 68.2052C27.4536 68.2052 17.8356 68.2052 19.1623 76.4952C20.489 84.7853 36.28 84.4537 48.2177 84.4537C60.1072 84.4537 66.1779 81.9535 68.2932 81.0823L68.3187 81.0718C68.4723 85.0924 88.3742 86.3046 113.183 85.6666C142.6 84.9102 143.182 70.1608 143.182 70.1608C143.182 70.1608 147.147 77.753 151.141 75.1688C157.712 70.9163 150.068 52.3603 147.976 46.3305C150.837 38.8653 149.95 15.3679 123.188 5.94469C103.851 -0.864281 60.2451 0.402245 40.4524 13.4835Z" fill="var(--fill-0, #F0DA9C)"/>
<path d="M68.3187 81.0718C68.4723 85.0924 88.3742 86.3046 113.183 85.6666C142.6 84.9102 143.182 70.1608 143.182 70.1608C143.182 70.1608 147.147 77.753 151.141 75.1688C157.712 70.9163 150.068 52.3603 147.976 46.3305C150.837 38.8653 149.95 15.3679 123.188 5.94469C103.851 -0.864281 60.2451 0.402245 40.4524 13.4835C8.5521 34.567 27.4536 68.2052 27.4536 68.2052C27.4536 68.2052 17.8356 68.2052 19.1623 76.4952C20.489 84.7853 36.28 84.4537 48.2177 84.4537C60.1554 84.4537 66.227 81.9332 68.3187 81.0718ZM68.3187 81.0718C68.0335 73.6064 69.4602 70.1608 83.7229 70.1608" stroke="var(--stroke-0, black)" stroke-width="3.76927" stroke-linecap="round" stroke-linejoin="round"/>
</g>
<g id="Group 2117132525">
<path id="Vector 7399" d="M72.4726 46.5826C72.4726 46.5826 75.4926 46.6278 78.7267 46.3739C81.9607 46.12 82.9023 44.1883 82.9023 44.1883" stroke="var(--stroke-0, black)" stroke-width="3.4089" stroke-linecap="round" stroke-linejoin="round"/>
<circle id="Ellipse 111799" cx="53.0148" cy="38.1889" r="8.7252" fill="var(--fill-0, white)" stroke="var(--stroke-0, black)" stroke-width="3.4089"/>
<ellipse id="Ellipse 111800" cx="49.4231" cy="37.0015" rx="5.80602" ry="7.19672" fill="var(--fill-0, black)"/>
<circle id="Ellipse 111801" cx="97.341" cy="32.9744" r="7.4215" fill="var(--fill-0, white)" stroke="var(--stroke-0, black)" stroke-width="3.4089"/>
<ellipse id="Ellipse 111802" cx="94.7346" cy="32.399" rx="4.33571" ry="5.94356" transform="rotate(15.0268 94.7346 32.399)" fill="var(--fill-0, black)"/>
</g>
</g>
</g>
</svg>
